<svg width="148" height="162" viewBox="0 0 148 162" fill="none" xmlns="http://www.w3.org/2000/svg">
<path fill-rule="evenodd" clip-rule="evenodd" d="M113.617 0C114.476 20.2205 94.9148 29.0114 77.0558 36.9528C83.8849 38.3205 89.8866 41.9657 94.2278 47.0587C111.648 39.6632 126.723 29.6778 113.617 0ZM34.9066 33.1998C43.2111 24.0453 57.9316 27.0155 64.8042 36.9917C57.0634 38.5938 50.4006 43.1254 46.0373 49.37C40.3936 42.001 34.9324 38.3157 24.3789 33.1998H34.9066ZM94.5516 109.376C88.3479 106.242 84.8604 102.103 81.6025 95.0724C87.466 92.9068 92.4769 88.9927 95.9966 83.966C101.386 97.7254 107.708 104.795 122.159 111.343H104.117C100.818 111.343 97.4929 110.863 94.5516 109.376ZM121.112 27.0394C131.36 53.4053 116.918 60.7784 101.447 66.4259C101.411 61.621 100.252 57.0822 98.2185 53.0569C110.321 47.7045 121.111 40.7222 121.112 27.0394ZM44.3697 37.5119C45.4898 37.5119 46.3979 36.6076 46.3979 35.492C46.3979 34.3765 45.4898 33.4722 44.3697 33.4722C43.2496 33.4722 42.3416 34.3765 42.3416 35.492C42.3416 36.6076 43.2496 37.5119 44.3697 37.5119Z" fill="#1D1D35"/>
<path fill-rule="evenodd" clip-rule="evenodd" d="M70.8633 90.6054C84.1446 90.6054 94.9111 79.8827 94.9111 66.6556C94.9111 53.4284 84.1446 42.7057 70.8633 42.7057C57.5821 42.7057 46.8155 53.4284 46.8155 66.6556C46.8155 71.3687 48.0811 75.7638 50.3112 79.4692C50.6841 82.123 47.3546 85.1022 43.3207 88.6018C42.5165 89.2995 43.0098 90.6055 44.0763 90.6055H70.5736L70.5725 90.6048L70.8633 90.6054ZM63.6194 66.9443C63.6194 68.2192 62.5816 69.2527 61.3015 69.2527C60.0214 69.2527 58.9837 68.2192 58.9837 66.9443C58.9837 65.6694 60.0214 64.6359 61.3015 64.6359C62.5816 64.6359 63.6194 65.6694 63.6194 66.9443ZM72.8908 66.9443C72.8908 68.2192 71.8531 69.2527 70.573 69.2527C69.2928 69.2527 68.2551 68.2192 68.2551 66.9443C68.2551 65.6694 69.2928 64.6359 70.573 64.6359C71.8531 64.6359 72.8908 65.6694 72.8908 66.9443ZM79.8444 69.2527C81.1245 69.2527 82.1623 68.2192 82.1623 66.9443C82.1623 65.6694 81.1245 64.6359 79.8444 64.6359C78.5643 64.6359 77.5265 65.6694 77.5265 66.9443C77.5265 68.2192 78.5643 69.2527 79.8444 69.2527Z" fill="#00BF6D"/>
<path d="M0.188108 158.544H4.74682V147.853H15.2036V144.032H4.74682V137.2H16.3095V133.379H0.188108V158.544ZM19.9958 158.544H24.4439V147.448C24.4439 145.052 26.2502 143.356 28.6954 143.356C29.4449 143.356 30.3788 143.491 30.7597 143.614V139.522C30.3542 139.449 29.6538 139.4 29.1623 139.4C26.9997 139.4 25.1934 140.628 24.5053 142.816H24.3087V139.67H19.9958V158.544ZM41.2933 158.912C45.6922 158.912 48.715 156.762 49.5014 153.481L45.3482 153.014C44.7461 154.612 43.2716 155.447 41.3547 155.447C38.4794 155.447 36.5748 153.555 36.538 150.323H49.6857V148.959C49.6857 142.336 45.7045 139.424 41.0598 139.424C35.6533 139.424 32.1267 143.393 32.1267 149.217C32.1267 155.14 35.6041 158.912 41.2933 158.912ZM36.5502 147.325C36.6854 144.917 38.4671 142.889 41.1212 142.889C43.6771 142.889 45.3973 144.757 45.4219 147.325H36.5502ZM61.8044 158.912C66.2033 158.912 69.2261 156.762 70.0125 153.481L65.8593 153.014C65.2572 154.612 63.7827 155.447 61.8658 155.447C58.9905 155.447 57.0859 153.555 57.0491 150.323H70.1968V148.959C70.1968 142.336 66.2156 139.424 61.5709 139.424C56.1644 139.424 52.6378 143.393 52.6378 149.217C52.6378 155.14 56.1152 158.912 61.8044 158.912ZM57.0614 147.325C57.1965 144.917 58.9782 142.889 61.6324 142.889C64.1882 142.889 65.9084 144.757 65.933 147.325H57.0614ZM80.9638 158.875C84.2078 158.875 85.67 156.946 86.3704 155.57H86.6407V158.544H91.0151V133.379H86.5547V142.791H86.3704C85.6946 141.427 84.3061 139.424 80.9761 139.424C76.614 139.424 73.1858 142.84 73.1858 149.131C73.1858 155.349 76.5157 158.875 80.9638 158.875ZM82.2049 155.226C79.2682 155.226 77.7199 152.646 77.7199 149.107C77.7199 145.593 79.2436 143.074 82.2049 143.074C85.0679 143.074 86.6407 145.445 86.6407 149.107C86.6407 152.769 85.0433 155.226 82.2049 155.226ZM103.988 158.912C109.517 158.912 113.031 155.017 113.031 149.181C113.031 143.332 109.517 139.424 103.988 139.424C98.4584 139.424 94.9441 143.332 94.9441 149.181C94.9441 155.017 98.4584 158.912 103.988 158.912ZM104.012 155.349C100.953 155.349 99.4537 152.621 99.4537 149.168C99.4537 145.715 100.953 142.951 104.012 142.951C107.023 142.951 108.522 145.715 108.522 149.168C108.522 152.621 107.023 155.349 104.012 155.349ZM116.807 158.544H121.255V147.067C121.255 144.745 122.803 143.172 124.72 143.172C126.6 143.172 127.89 144.438 127.89 146.379V158.544H132.252V146.772C132.252 144.646 133.518 143.172 135.668 143.172C137.462 143.172 138.888 144.229 138.888 146.563V158.544H143.348V145.875C143.348 141.661 140.915 139.424 137.45 139.424C134.71 139.424 132.621 140.776 131.785 142.877H131.589C130.864 140.739 129.033 139.424 126.489 139.424C123.958 139.424 122.066 140.727 121.28 142.877H121.058V139.67H116.807V158.544Z" fill="#1D1D35"/>
</svg>
