<svg width="92" height="101" viewBox="0 0 92 101" fill="none" xmlns="http://www.w3.org/2000/svg">
<path fill-rule="evenodd" clip-rule="evenodd" d="M81.3948 0C82.1689 18.2234 64.54 26.1461 48.4449 33.3031C54.5996 34.5356 60.0087 37.8208 63.9212 42.4108C79.6204 35.7458 93.2064 26.7465 81.3948 0ZM10.4586 29.9208C17.943 21.6704 31.2097 24.3473 37.4035 33.3384C30.4272 34.7823 24.4225 38.8664 20.4902 44.4943C15.4038 37.8528 10.4821 34.5315 0.970703 29.9208H10.4586ZM64.2127 98.5738C58.6218 95.7487 55.4788 92.0189 52.5426 85.6827C57.827 83.7311 62.3431 80.2037 65.5153 75.6735C70.3724 88.0736 76.0697 94.4453 89.0933 100.346H72.8332C69.8607 100.346 66.8636 99.9133 64.2127 98.5738ZM88.1497 24.3689C97.3857 48.1305 84.3706 54.7755 70.4272 59.8652C70.3949 55.5348 69.3504 51.4443 67.5178 47.8166C78.4246 42.9929 88.1493 36.7001 88.1497 24.3689ZM18.9875 33.8071C19.997 33.8071 20.8154 32.9921 20.8154 31.9867C20.8154 30.9814 19.997 30.1663 18.9875 30.1663C17.9781 30.1663 17.1597 30.9814 17.1597 31.9867C17.1597 32.9921 17.9781 33.8071 18.9875 33.8071Z" fill="#F5FCF9"/>
<path fill-rule="evenodd" clip-rule="evenodd" d="M42.8644 81.6567C54.8339 81.6567 64.5371 71.993 64.5371 60.0723C64.5371 48.1515 54.8339 38.4878 42.8644 38.4878C30.8949 38.4878 21.1917 48.1515 21.1917 60.0723C21.1917 64.3199 22.3323 68.2809 24.3422 71.6203C24.6782 74.012 21.6775 76.697 18.042 79.8509C17.3173 80.4797 17.7618 81.6567 18.723 81.6567H42.6033L42.6024 81.6561L42.8644 81.6567ZM36.336 60.3324C36.336 61.4814 35.4007 62.4128 34.247 62.4128C33.0934 62.4128 32.1581 61.4814 32.1581 60.3324C32.1581 59.1834 33.0934 58.252 34.247 58.252C35.4007 58.252 36.336 59.1834 36.336 60.3324ZM44.6917 60.3324C44.6917 61.4814 43.7565 62.4128 42.6028 62.4128C41.4491 62.4128 40.5138 61.4814 40.5138 60.3324C40.5138 59.1834 41.4491 58.252 42.6028 58.252C43.7565 58.252 44.6917 59.1834 44.6917 60.3324ZM50.9585 62.4128C52.1122 62.4128 53.0475 61.4814 53.0475 60.3324C53.0475 59.1834 52.1122 58.252 50.9585 58.252C49.8048 58.252 48.8696 59.1834 48.8696 60.3324C48.8696 61.4814 49.8048 62.4128 50.9585 62.4128Z" fill="#00BF6D"/>
</svg>
