<svg width="92" height="101" viewBox="0 0 92 101" fill="none" xmlns="http://www.w3.org/2000/svg">
<path fill-rule="evenodd" clip-rule="evenodd" d="M81.3948 0C82.1689 18.2234 64.5401 26.1461 48.4451 33.3031C54.5998 34.5356 60.0088 37.8208 63.9213 42.4108C79.6204 35.7458 93.2064 26.7465 81.3948 0ZM10.4586 29.9208C17.9429 21.6704 31.2096 24.3473 37.4034 33.3383C30.4272 34.7822 24.4225 38.8663 20.4902 44.4943C15.4038 37.8528 10.482 34.5315 0.970703 29.9208H10.4586ZM64.2127 98.5738C58.6218 95.7487 55.4787 92.0189 52.5426 85.6826C57.827 83.7311 62.343 80.2036 65.5152 75.6734C70.3724 88.0736 76.0696 94.4453 89.0933 100.346H72.8332C69.8607 100.346 66.8636 99.9133 64.2127 98.5738ZM88.1497 24.3689C97.3857 48.1305 84.3706 54.7755 70.4272 59.8652C70.3949 55.5348 69.3505 51.4443 67.5178 47.8166C78.4246 42.9929 88.1493 36.7001 88.1497 24.3689ZM18.9875 33.807C19.997 33.807 20.8154 32.992 20.8154 31.9866C20.8154 30.9813 19.997 30.1663 18.9875 30.1663C17.9781 30.1663 17.1597 30.9813 17.1597 31.9866C17.1597 32.992 17.9781 33.807 18.9875 33.807Z" fill="#1D1D35"/>
<path fill-rule="evenodd" clip-rule="evenodd" d="M42.8644 81.6568C54.8339 81.6568 64.5371 71.9931 64.5371 60.0724C64.5371 48.1516 54.8339 38.4879 42.8644 38.4879C30.8949 38.4879 21.1917 48.1516 21.1917 60.0724C21.1917 64.32 22.3323 68.281 24.3422 71.6204C24.6782 74.0121 21.6775 76.6972 18.042 79.8511C17.3173 80.4798 17.7618 81.6568 18.723 81.6568H42.6033L42.6024 81.6562L42.8644 81.6568ZM36.336 60.3325C36.336 61.4815 35.4007 62.4129 34.247 62.4129C33.0934 62.4129 32.1581 61.4815 32.1581 60.3325C32.1581 59.1835 33.0934 58.2521 34.247 58.2521C35.4007 58.2521 36.336 59.1835 36.336 60.3325ZM44.6917 60.3325C44.6917 61.4815 43.7565 62.4129 42.6028 62.4129C41.4491 62.4129 40.5138 61.4815 40.5138 60.3325C40.5138 59.1835 41.4491 58.2521 42.6028 58.2521C43.7565 58.2521 44.6917 59.1835 44.6917 60.3325ZM50.9585 62.4129C52.1122 62.4129 53.0475 61.4815 53.0475 60.3325C53.0475 59.1835 52.1122 58.2521 50.9585 58.2521C49.8048 58.2521 48.8696 59.1835 48.8696 60.3325C48.8696 61.4815 49.8048 62.4129 50.9585 62.4129Z" fill="#00BF6D"/>
</svg>
